<svg width="512" height="512" viewBox="0 0 512 512" fill="none" xmlns="http://www.w3.org/2000/svg">
<path d="M503.234 94.8567C498.352 53.3888 458.616 13.6481 417.143 8.76552C309.713 -2.92184 202.283 -2.92184 94.8567 8.76552C53.3842 13.6436 13.6481 53.3888 8.76552 94.8567C-2.92184 202.287 -2.92184 309.717 8.76552 417.143C13.6481 458.616 53.3842 498.352 94.8567 503.234C202.287 514.922 309.717 514.922 417.143 503.234C458.616 498.352 498.352 458.616 503.234 417.143C514.922 309.717 514.922 202.287 503.234 94.8567ZM105.17 256.952C101.87 256.952 98.5334 255.991 95.6047 253.983C87.8887 248.692 85.9257 238.147 91.2163 230.431L183.682 95.6047C188.972 87.8887 199.517 85.9257 207.233 91.2163C214.949 96.5069 216.912 107.052 211.622 114.768L119.152 249.594C115.869 254.382 110.565 256.952 105.17 256.952ZM129.221 292.962L264.541 95.6501C269.832 87.9341 280.377 85.971 288.093 91.2616C295.809 96.5522 297.772 107.097 292.481 114.813L157.161 312.125C153.878 316.912 148.57 319.487 143.175 319.487C139.874 319.487 136.538 318.526 133.609 316.518C125.898 311.223 123.93 300.678 129.221 292.962ZM152.509 423.613C149.209 423.613 145.872 422.651 142.944 420.643C135.228 415.353 133.265 404.808 138.555 397.092L345.301 95.6365C350.591 87.9204 361.136 85.9574 368.852 91.248C376.568 96.5386 378.531 107.084 373.241 114.8L166.495 416.255C163.208 421.042 157.904 423.613 152.509 423.613ZM247.459 416.354C244.177 421.142 238.868 423.717 233.473 423.717C230.173 423.717 226.836 422.756 223.907 420.747C216.191 415.457 214.228 404.912 219.519 397.196L354.839 199.884C360.13 192.168 370.675 190.205 378.391 195.496C386.107 200.786 388.07 211.331 382.779 219.047L247.459 416.354ZM420.788 281.569L328.318 416.4C325.036 421.187 319.727 423.762 314.333 423.762C311.032 423.762 307.696 422.801 304.767 420.793C297.051 415.502 295.088 404.957 300.378 397.241L392.848 262.41C398.139 254.694 408.684 252.731 416.4 258.022C424.116 263.313 426.079 273.853 420.788 281.569Z" fill="#2F3446"/>
</svg>
